<svg width="50" height="45" viewBox="0 0 61 46" fill="none" xmlns="http://www.w3.org/2000/svg">
<path d="M5.08337 3.83334H9.50587C12.2509 3.83334 14.4113 5.61584 14.1825 7.66668L12.073 26.7567C11.9906 27.4962 12.1128 28.2407 12.4319 28.9427C12.751 29.6448 13.26 30.2892 13.9267 30.8352C14.5934 31.3812 15.4031 31.8168 16.3047 32.1144C17.2063 32.412 18.18 32.5652 19.1642 32.5642H46.233C49.893 32.5642 53.0955 30.3025 53.375 27.5617L54.7475 13.1867C55.0525 10.005 51.85 7.41751 47.6055 7.41751H14.7925M22.875 15.3333H53.375M41.3021 42.1667C42.1447 42.1667 42.9528 41.9143 43.5487 41.465C44.1445 41.0157 44.4792 40.4063 44.4792 39.7708C44.4792 39.1354 44.1445 38.526 43.5487 38.0767C42.9528 37.6274 42.1447 37.375 41.3021 37.375C40.4595 37.375 39.6514 37.6274 39.0556 38.0767C38.4598 38.526 38.125 39.1354 38.125 39.7708C38.125 40.4063 38.4598 41.0157 39.0556 41.465C39.6514 41.9143 40.4595 42.1667 41.3021 42.1667ZM20.9688 42.1667C21.8114 42.1667 22.6195 41.9143 23.2153 41.465C23.8111 41.0157 24.1459 40.4063 24.1459 39.7708C24.1459 39.1354 23.8111 38.526 23.2153 38.0767C22.6195 37.6274 21.8114 37.375 20.9688 37.375C20.1262 37.375 19.3181 37.6274 18.7223 38.0767C18.1264 38.526 17.7917 39.1354 17.7917 39.7708C17.7917 40.4063 18.1264 41.0157 18.7223 41.465C19.3181 41.9143 20.1262 42.1667 20.9688 42.1667V42.1667Z" stroke="black" stroke-width="1.5" stroke-miterlimit="10" stroke-linecap="round" stroke-linejoin="round"/>
</svg>
