<svg width="48" height="50" viewBox="0 0 48 50" fill="none" xmlns="http://www.w3.org/2000/svg">
<path d="M39.94 20.8333H7.94V37.5C7.94 43.75 9.94 45.8333 15.94 45.8333H31.94C37.94 45.8333 39.94 43.75 39.94 37.5V20.8333ZM43 14.5833V16.6667C43 18.9583 41.94 20.8333 39 20.8333H9C5.94 20.8333 5 18.9583 5 16.6667V14.5833C5 12.2917 5.94 10.4167 9 10.4167H39C41.94 10.4167 43 12.2917 43 14.5833ZM23.28 10.4167H12.24C11.9111 10.0451 11.7336 9.55509 11.7448 9.04986C11.756 8.54463 11.955 8.06367 12.3 7.70832L15.14 4.74999C15.4994 4.37976 15.9845 4.17212 16.49 4.17212C16.9955 4.17212 17.4806 4.37976 17.84 4.74999L23.28 10.4167ZM35.74 10.4167H24.7L30.14 4.74999C30.4994 4.37976 30.9845 4.17212 31.49 4.17212C31.9955 4.17212 32.4806 4.37976 32.84 4.74999L35.68 7.70832C36.4 8.45832 36.42 9.64582 35.74 10.4167V10.4167Z" stroke="black" stroke-width="1.5" stroke-miterlimit="10" stroke-linecap="round" stroke-linejoin="round"/>
<path d="M17.88 20.8333V31.5417C17.88 33.2083 19.64 34.1875 20.98 33.2917L22.86 32C23.1866 31.776 23.569 31.6566 23.96 31.6566C24.351 31.6566 24.7334 31.776 25.06 32L26.84 33.25C27.1404 33.4586 27.4894 33.5783 27.85 33.5964C28.2106 33.6145 28.5691 33.5303 28.8873 33.3528C29.2055 33.1753 29.4715 32.9111 29.6569 32.5885C29.8423 32.2659 29.9402 31.8969 29.94 31.5208V20.8333H17.88Z" stroke="black" stroke-width="1.5" stroke-miterlimit="10" stroke-linecap="round" stroke-linejoin="round"/>
</svg>
