<svg xmlns="http://www.w3.org/2000/svg" xmlns:xlink="http://www.w3.org/1999/xlink" version="1.1" width="256" height="256" viewBox="0 0 256 256" xml:space="preserve">

<defs>
</defs>
<g style="stroke: none; stroke-width: 0; stroke-dasharray: none; stroke-linecap: butt; stroke-linejoin: miter; stroke-miterlimit: 10; fill: none; fill-rule: nonzero; opacity: 1;" transform="translate(1.4065934065934016 1.4065934065934016) scale(2.81 2.81)" >
	<circle cx="22.978" cy="11.728" r="10.228" style="stroke: none; stroke-width: 1; stroke-dasharray: none; stroke-linecap: butt; stroke-linejoin: miter; stroke-miterlimit: 10; fill: rgb(237,204,67); fill-rule: nonzero; opacity: 1;" transform="  matrix(1 0 0 1 0 0) "/>
	<path d="M 77.253 90 H 12.747 c -0.829 0 -1.5 -0.672 -1.5 -1.5 s 0.671 -1.5 1.5 -1.5 h 64.506 c 0.828 0 1.5 0.672 1.5 1.5 S 78.081 90 77.253 90 z" style="stroke: none; stroke-width: 1; stroke-dasharray: none; stroke-linecap: butt; stroke-linejoin: miter; stroke-miterlimit: 10; fill: rgb(0,0,0); fill-rule: nonzero; opacity: 1;" transform=" matrix(1 0 0 1 0 0) " stroke-linecap="round" />
	<path d="M 63.203 67.027 L 63.203 67.027 c -7.76 0 -14.05 -6.29 -14.05 -14.05 V 15.55 c 0 -7.76 6.29 -14.05 14.05 -14.05 h 0 c 7.76 0 14.05 6.29 14.05 14.05 v 37.427 C 77.253 60.737 70.962 67.027 63.203 67.027 z" style="stroke: none; stroke-width: 1; stroke-dasharray: none; stroke-linecap: butt; stroke-linejoin: miter; stroke-miterlimit: 10; fill: rgb(153,213,59); fill-rule: nonzero; opacity: 1;" transform=" matrix(1 0 0 1 0 0) " stroke-linecap="round" />
	<path d="M 63.202 90 c -0.828 0 -1.5 -0.672 -1.5 -1.5 V 32.633 c 0 -0.829 0.672 -1.5 1.5 -1.5 s 1.5 0.671 1.5 1.5 V 88.5 C 64.702 89.328 64.03 90 63.202 90 z" style="stroke: none; stroke-width: 1; stroke-dasharray: none; stroke-linecap: butt; stroke-linejoin: miter; stroke-miterlimit: 10; fill: rgb(0,0,0); fill-rule: nonzero; opacity: 1;" transform=" matrix(1 0 0 1 0 0) " stroke-linecap="round" />
	<path d="M 63.202 56.186 c -0.384 0 -0.768 -0.146 -1.061 -0.439 c -0.586 -0.586 -0.586 -1.535 0 -2.121 l 6.273 -6.272 c 0.586 -0.586 1.535 -0.586 2.121 0 s 0.586 1.535 0 2.121 l -6.273 6.272 C 63.97 56.039 63.586 56.186 63.202 56.186 z" style="stroke: none; stroke-width: 1; stroke-dasharray: none; stroke-linecap: butt; stroke-linejoin: miter; stroke-miterlimit: 10; fill: rgb(0,0,0); fill-rule: nonzero; opacity: 1;" transform=" matrix(1 0 0 1 0 0) " stroke-linecap="round" />
	<path d="M 63.202 48.998 c -0.384 0 -0.768 -0.146 -1.061 -0.439 l -6.272 -6.273 c -0.586 -0.586 -0.586 -1.536 0 -2.121 c 0.586 -0.586 1.535 -0.586 2.121 0 l 6.272 6.273 c 0.586 0.586 0.586 1.535 0 2.121 C 63.97 48.852 63.586 48.998 63.202 48.998 z" style="stroke: none; stroke-width: 1; stroke-dasharray: none; stroke-linecap: butt; stroke-linejoin: miter; stroke-miterlimit: 10; fill: rgb(0,0,0); fill-rule: nonzero; opacity: 1;" transform=" matrix(1 0 0 1 0 0) " stroke-linecap="round" />
	<path d="M 63.202 68.527 c -8.574 0 -15.55 -6.976 -15.55 -15.55 V 15.55 C 47.652 6.976 54.628 0 63.202 0 c 8.575 0 15.551 6.976 15.551 15.55 v 37.427 C 78.753 61.552 71.777 68.527 63.202 68.527 z M 63.202 3 c -6.92 0 -12.55 5.63 -12.55 12.55 v 37.427 c 0 6.92 5.63 12.55 12.55 12.55 c 6.921 0 12.551 -5.63 12.551 -12.55 V 15.55 C 75.753 8.63 70.123 3 63.202 3 z" style="stroke: none; stroke-width: 1; stroke-dasharray: none; stroke-linecap: butt; stroke-linejoin: miter; stroke-miterlimit: 10; fill: rgb(0,0,0); fill-rule: nonzero; opacity: 1;" transform=" matrix(1 0 0 1 0 0) " stroke-linecap="round" />
	<circle cx="33.205" cy="54.714999999999996" r="20.455" style="stroke: none; stroke-width: 1; stroke-dasharray: none; stroke-linecap: butt; stroke-linejoin: miter; stroke-miterlimit: 10; fill: rgb(28,165,111); fill-rule: nonzero; opacity: 1;" transform="  matrix(1 0 0 1 0 0) "/>
	<path d="M 33.203 90 c -0.829 0 -1.5 -0.672 -1.5 -1.5 V 51.802 c 0 -0.828 0.671 -1.5 1.5 -1.5 s 1.5 0.672 1.5 1.5 V 88.5 C 34.703 89.328 34.031 90 33.203 90 z" style="stroke: none; stroke-width: 1; stroke-dasharray: none; stroke-linecap: butt; stroke-linejoin: miter; stroke-miterlimit: 10; fill: rgb(0,0,0); fill-rule: nonzero; opacity: 1;" transform=" matrix(1 0 0 1 0 0) " stroke-linecap="round" />
	<path d="M 33.203 67.05 c -0.384 0 -0.768 -0.146 -1.061 -0.439 c -0.586 -0.586 -0.586 -1.535 0 -2.121 l 3.911 -3.91 c 0.586 -0.586 1.535 -0.586 2.121 0 s 0.586 1.535 0 2.121 l -3.911 3.91 C 33.97 66.903 33.586 67.05 33.203 67.05 z" style="stroke: none; stroke-width: 1; stroke-dasharray: none; stroke-linecap: butt; stroke-linejoin: miter; stroke-miterlimit: 10; fill: rgb(0,0,0); fill-rule: nonzero; opacity: 1;" transform=" matrix(1 0 0 1 0 0) " stroke-linecap="round" />
	<path d="M 33.203 62.568 c -0.384 0 -0.768 -0.146 -1.061 -0.439 l -3.911 -3.91 c -0.586 -0.586 -0.586 -1.535 0 -2.121 c 0.585 -0.586 1.535 -0.586 2.121 0 l 3.911 3.91 c 0.586 0.586 0.586 1.535 0 2.121 C 33.971 62.422 33.586 62.568 33.203 62.568 z" style="stroke: none; stroke-width: 1; stroke-dasharray: none; stroke-linecap: butt; stroke-linejoin: miter; stroke-miterlimit: 10; fill: rgb(0,0,0); fill-rule: nonzero; opacity: 1;" transform=" matrix(1 0 0 1 0 0) " stroke-linecap="round" />
	<path d="M 33.203 76.674 c -12.106 0 -21.956 -9.849 -21.956 -21.955 c 0 -12.106 9.849 -21.955 21.956 -21.955 s 21.956 9.849 21.956 21.955 C 55.158 66.825 45.309 76.674 33.203 76.674 z M 33.203 35.764 c -10.452 0 -18.956 8.503 -18.956 18.955 c 0 10.452 8.503 18.955 18.956 18.955 s 18.956 -8.503 18.956 -18.955 C 52.158 44.267 43.655 35.764 33.203 35.764 z" style="stroke: none; stroke-width: 1; stroke-dasharray: none; stroke-linecap: butt; stroke-linejoin: miter; stroke-miterlimit: 10; fill: rgb(0,0,0); fill-rule: nonzero; opacity: 1;" transform=" matrix(1 0 0 1 0 0) " stroke-linecap="round" />
	<path d="M 22.975 23.455 c -6.467 0 -11.728 -5.261 -11.728 -11.728 S 16.508 0 22.975 0 s 11.728 5.261 11.728 11.728 S 29.442 23.455 22.975 23.455 z M 22.975 3 c -4.813 0 -8.728 3.915 -8.728 8.728 s 3.916 8.728 8.728 8.728 s 8.728 -3.915 8.728 -8.728 S 27.788 3 22.975 3 z" style="stroke: none; stroke-width: 1; stroke-dasharray: none; stroke-linecap: butt; stroke-linejoin: miter; stroke-miterlimit: 10; fill: rgb(0,0,0); fill-rule: nonzero; opacity: 1;" transform=" matrix(1 0 0 1 0 0) " stroke-linecap="round" />
</g>
</svg>