<svg xmlns="http://www.w3.org/2000/svg" xmlns:xlink="http://www.w3.org/1999/xlink" version="1.1" width="256" height="256" viewBox="0 0 256 256" xml:space="preserve">

<defs>
</defs>
<g style="stroke: none; stroke-width: 0; stroke-dasharray: none; stroke-linecap: butt; stroke-linejoin: miter; stroke-miterlimit: 10; fill: none; fill-rule: nonzero; opacity: 1;" transform="translate(1.4065934065934016 1.4065934065934016) scale(2.81 2.81)" >
	<path d="M 45.063 90 c -1.104 0 -2 -0.896 -2 -2 V 28.517 c 0 -1.104 0.896 -2 2 -2 c 1.105 0 2 0.896 2 2 V 88 C 47.063 89.104 46.168 90 45.063 90 z" style="stroke: none; stroke-width: 1; stroke-dasharray: none; stroke-linecap: butt; stroke-linejoin: miter; stroke-miterlimit: 10; fill: rgb(0,0,0); fill-rule: nonzero; opacity: 1;" transform=" matrix(1 0 0 1 0 0) " stroke-linecap="round" />
	<path d="M 45.063 44.309 c -0.538 0 -1.075 -0.216 -1.469 -0.642 c -0.75 -0.811 -0.701 -2.076 0.11 -2.826 l 9.382 -8.678 c 0.81 -0.75 2.076 -0.701 2.827 0.11 c 0.75 0.811 0.7 2.076 -0.11 2.826 l -9.383 8.678 C 46.036 44.133 45.549 44.309 45.063 44.309 z" style="stroke: none; stroke-width: 1; stroke-dasharray: none; stroke-linecap: butt; stroke-linejoin: miter; stroke-miterlimit: 10; fill: rgb(0,0,0); fill-rule: nonzero; opacity: 1;" transform=" matrix(1 0 0 1 0 0) " stroke-linecap="round" />
	<path d="M 45.063 57.646 c -0.486 0 -0.973 -0.176 -1.357 -0.532 l -13.104 -12.12 c -0.811 -0.75 -0.86 -2.016 -0.11 -2.826 c 0.75 -0.811 2.015 -0.86 2.826 -0.11 l 13.104 12.121 c 0.811 0.75 0.86 2.015 0.11 2.826 C 46.137 57.43 45.601 57.646 45.063 57.646 z" style="stroke: none; stroke-width: 1; stroke-dasharray: none; stroke-linecap: butt; stroke-linejoin: miter; stroke-miterlimit: 10; fill: rgb(0,0,0); fill-rule: nonzero; opacity: 1;" transform=" matrix(1 0 0 1 0 0) " stroke-linecap="round" />
	<path d="M 58.041 90 H 32.149 c -1.104 0 -2 -0.896 -2 -2 s 0.896 -2 2 -2 h 25.892 c 1.104 0 2 0.896 2 2 S 59.146 90 58.041 90 z" style="stroke: none; stroke-width: 1; stroke-dasharray: none; stroke-linecap: butt; stroke-linejoin: miter; stroke-miterlimit: 10; fill: rgb(0,0,0); fill-rule: nonzero; opacity: 1;" transform=" matrix(1 0 0 1 0 0) " stroke-linecap="round" />
	<path d="M 69.081 71.017 H 20.919 c -7.43 0 -13.475 -6.045 -13.475 -13.475 c 0 -4.704 2.475 -9.044 6.426 -11.474 c -0.339 -1.544 -0.511 -3.114 -0.511 -4.687 c 0 -7.31 3.717 -14.177 9.782 -18.22 c -0.028 -0.436 -0.042 -0.854 -0.042 -1.262 C 23.101 9.824 32.925 0 45 0 s 21.899 9.824 21.899 21.899 c 0 0.408 -0.014 0.827 -0.042 1.262 c 6.065 4.043 9.783 10.911 9.783 18.22 c 0 1.573 -0.172 3.143 -0.512 4.687 c 3.952 2.431 6.427 6.77 6.427 11.474 C 82.556 64.972 76.511 71.017 69.081 71.017 z M 45 4 c -9.87 0 -17.899 8.03 -17.899 17.899 c 0 0.634 0.043 1.313 0.131 2.077 c 0.091 0.788 -0.292 1.555 -0.978 1.956 c -5.486 3.207 -8.894 9.126 -8.894 15.45 c 0 1.73 0.255 3.458 0.757 5.136 c 0.287 0.959 -0.18 1.982 -1.092 2.396 c -3.39 1.533 -5.581 4.921 -5.581 8.629 c 0 5.225 4.25 9.475 9.475 9.475 h 48.162 c 5.225 0 9.475 -4.25 9.475 -9.475 c 0 -3.708 -2.19 -7.096 -5.581 -8.629 c -0.912 -0.413 -1.379 -1.437 -1.092 -2.396 c 0.503 -1.678 0.758 -3.406 0.758 -5.135 c 0 -6.323 -3.408 -12.243 -8.895 -15.45 c -0.686 -0.4 -1.069 -1.168 -0.978 -1.957 c 0.088 -0.761 0.131 -1.44 0.131 -2.075 C 62.899 12.03 54.87 4 45 4 z" style="stroke: none; stroke-width: 1; stroke-dasharray: none; stroke-linecap: butt; stroke-linejoin: miter; stroke-miterlimit: 10; fill: rgb(0,0,0); fill-rule: nonzero; opacity: 1;" transform=" matrix(1 0 0 1 0 0) " stroke-linecap="round" />
</g>
</svg>