<svg xmlns="http://www.w3.org/2000/svg" xmlns:xlink="http://www.w3.org/1999/xlink" version="1.1" width="256" height="256" viewBox="0 0 256 256" xml:space="preserve">

<defs>
</defs>
<g style="stroke: none; stroke-width: 0; stroke-dasharray: none; stroke-linecap: butt; stroke-linejoin: miter; stroke-miterlimit: 10; fill: none; fill-rule: nonzero; opacity: 1;" transform="translate(1.4065934065934016 1.4065934065934016) scale(2.81 2.81)" >
	<path d="M 47.54 26.536 c 4.342 9.936 10.842 19.152 -1.502 31.091 C 35.23 68.071 29.388 76.188 32.511 90 l 26.399 0 h 0.733 c -11.732 -14.624 -10.82 -19.013 -2.289 -31.818 c 6.53 -10.648 0.902 -21.214 -5.033 -31.646" style="stroke: none; stroke-width: 1; stroke-dasharray: none; stroke-linecap: butt; stroke-linejoin: miter; stroke-miterlimit: 10; fill: rgb(122,8,8); fill-rule: nonzero; opacity: 1;" transform=" matrix(1 0 0 1 0 0) " stroke-linecap="round" />
	<path d="M 59.995 51.332 c 6.494 0.757 9.51 -2.845 12.323 -7.597 l 3.373 -0.116 c -1.998 1.906 -3.062 5.949 -6.087 9.242 c -2.792 3.041 -8.444 5.444 -12.896 4.938" style="stroke: none; stroke-width: 1; stroke-dasharray: none; stroke-linecap: butt; stroke-linejoin: miter; stroke-miterlimit: 10; fill: rgb(122,8,8); fill-rule: nonzero; opacity: 1;" transform=" matrix(1 0 0 1 0 0) " stroke-linecap="round" />
	<path d="M 39.372 64.683 c -4.346 -7.808 -16.293 -9.514 -20.136 -16.197 h 4.279 c 3.166 5.078 16.233 3.242 20.579 11.05" style="stroke: none; stroke-width: 1; stroke-dasharray: none; stroke-linecap: butt; stroke-linejoin: miter; stroke-miterlimit: 10; fill: rgb(96,7,7); fill-rule: nonzero; opacity: 1;" transform=" matrix(1 0 0 1 0 0) " stroke-linecap="round" />
	<path d="M 19.807 16.017 c -0.35 -0.709 -0.564 -1.495 -0.564 -2.339 c 0 -2.75 2.097 -4.986 4.775 -5.26 C 24.476 3.693 28.457 0 33.301 0 c 3.347 0 6.274 1.769 7.921 4.416 c 0.412 -0.091 0.835 -0.155 1.275 -0.155 c 2.674 0 4.91 1.772 5.666 4.197 c 1.061 -0.506 2.245 -0.798 3.499 -0.798 c 2.455 0 4.652 1.091 6.145 2.809 c 0.718 -0.264 1.49 -0.416 2.3 -0.416 c 2.574 0 4.803 1.46 5.915 3.596 c 0.978 -0.854 2.242 -1.388 3.642 -1.388 c 2.565 0 4.702 1.744 5.347 4.105 c 2.457 0.378 4.345 2.483 4.345 5.046 c 0 2.83 -2.294 5.125 -5.125 5.125 H 54.713 h -8.43 H 20.884 c -2.935 0 -5.314 -2.379 -5.314 -5.314 C 15.57 18.655 17.389 16.514 19.807 16.017 z" style="stroke: none; stroke-width: 1; stroke-dasharray: none; stroke-linecap: butt; stroke-linejoin: miter; stroke-miterlimit: 10; fill: rgb(53,144,36); fill-rule: nonzero; opacity: 1;" transform=" matrix(1 0 0 1 0 0) " stroke-linecap="round" />
	<path d="M 38.403 42.293 c 0.206 -0.417 0.332 -0.88 0.332 -1.377 c 0 -1.619 -1.235 -2.936 -2.811 -3.097 c -0.27 -2.782 -2.614 -4.956 -5.466 -4.956 c -1.971 0 -3.694 1.041 -4.664 2.6 c -0.243 -0.054 -0.491 -0.091 -0.751 -0.091 c -1.574 0 -2.891 1.043 -3.336 2.471 c -0.625 -0.298 -1.322 -0.47 -2.06 -0.47 c -1.446 0 -2.739 0.642 -3.618 1.654 c -0.423 -0.156 -0.877 -0.245 -1.354 -0.245 c -1.516 0 -2.828 0.86 -3.483 2.117 c -0.576 -0.503 -1.32 -0.817 -2.145 -0.817 c -1.51 0 -2.769 1.027 -3.148 2.417 C 4.451 42.72 3.34 43.96 3.34 45.469 c 0 1.666 1.351 3.017 3.017 3.017 H 17.85 h 4.964 h 14.955 c 1.728 0 3.129 -1.401 3.129 -3.129 C 40.898 43.846 39.827 42.586 38.403 42.293 z" style="stroke: none; stroke-width: 1; stroke-dasharray: none; stroke-linecap: butt; stroke-linejoin: miter; stroke-miterlimit: 10; fill: rgb(53,144,36); fill-rule: nonzero; opacity: 1;" transform=" matrix(1 0 0 1 0 0) " stroke-linecap="round" />
	<path d="M 50.593 58.879 c 10.66 -13.033 3.871 -22.348 -1.624 -32.343 H 47.54 c 4.342 9.936 10.842 19.152 -1.502 31.091 C 35.23 68.071 29.388 76.188 32.511 90 l 7.141 0 C 37.092 77.835 41.925 69.467 50.593 58.879 z" style="stroke: none; stroke-width: 1; stroke-dasharray: none; stroke-linecap: butt; stroke-linejoin: miter; stroke-miterlimit: 10; fill: rgb(96,7,7); fill-rule: nonzero; opacity: 1;" transform=" matrix(1 0 0 1 0 0) " stroke-linecap="round" />
	<path d="M 61.212 40.808 c 0.113 -0.311 0.177 -0.645 0.177 -0.994 c 0 -1.615 -1.309 -2.924 -2.924 -2.924 c -0.45 0 -0.875 0.105 -1.256 0.287 c -0.271 -0.87 -1.074 -1.506 -2.034 -1.506 c -0.158 0 -0.31 0.023 -0.458 0.056 c -0.591 -0.95 -1.642 -1.585 -2.843 -1.585 c -1.739 0 -3.168 1.326 -3.332 3.022 c -0.961 0.098 -1.714 0.901 -1.714 1.888 c 0 0.303 0.077 0.585 0.203 0.84 c -0.868 0.179 -1.521 0.947 -1.521 1.868 c 0 1.054 0.854 1.908 1.908 1.908 H 59.56 c 1.053 0 1.908 -0.854 1.908 -1.908 C 61.468 41.411 61.374 41.087 61.212 40.808 z" style="stroke: none; stroke-width: 1; stroke-dasharray: none; stroke-linecap: butt; stroke-linejoin: miter; stroke-miterlimit: 10; fill: rgb(53,144,36); fill-rule: nonzero; opacity: 1;" transform=" matrix(1 0 0 1 0 0) " stroke-linecap="round" />
	<path d="M 59.739 52.426 c 6.918 0.506 10.035 -3.469 12.85 -8.701 l -0.271 0.009 c -2.814 4.751 -5.83 8.354 -12.323 7.597" style="stroke: none; stroke-width: 1; stroke-dasharray: none; stroke-linecap: butt; stroke-linejoin: miter; stroke-miterlimit: 10; fill: rgb(96,7,7); fill-rule: nonzero; opacity: 1;" transform=" matrix(1 0 0 1 0 0) " stroke-linecap="round" />
	<path d="M 65.074 40.703 c -0.155 -0.427 -0.244 -0.886 -0.244 -1.367 c 0 -2.22 1.8 -4.02 4.02 -4.02 c 0.619 0 1.203 0.144 1.727 0.394 c 0.373 -1.197 1.476 -2.071 2.796 -2.071 c 0.217 0 0.426 0.032 0.629 0.077 c 0.812 -1.306 2.257 -2.179 3.908 -2.179 c 2.391 0 4.355 1.822 4.581 4.154 c 1.321 0.135 2.356 1.238 2.356 2.595 c 0 0.416 -0.106 0.804 -0.278 1.154 c 1.194 0.246 2.091 1.302 2.091 2.568 c 0 1.448 -1.174 2.622 -2.622 2.622 H 67.345 c -1.448 0 -2.622 -1.174 -2.622 -2.622 C 64.723 41.532 64.852 41.087 65.074 40.703 z" style="stroke: none; stroke-width: 1; stroke-dasharray: none; stroke-linecap: butt; stroke-linejoin: miter; stroke-miterlimit: 10; fill: rgb(53,144,36); fill-rule: nonzero; opacity: 1;" transform=" matrix(1 0 0 1 0 0) " stroke-linecap="round" />
	<path d="M 71.185 43.619 c -1.298 0 -2.351 -0.993 -2.351 -2.217 c 0 -0.403 0.115 -0.779 0.315 -1.103 c -0.139 -0.361 -0.218 -0.749 -0.218 -1.156 c 0 -1.877 1.613 -3.399 3.604 -3.399 c 0.555 0 1.078 0.122 1.548 0.333 c 0.24 -0.727 0.821 -1.307 1.566 -1.58 c 0.033 -1.082 0.452 -2.058 1.122 -2.814 c -1.164 0.298 -2.149 1.038 -2.768 2.033 c -0.203 -0.045 -0.412 -0.077 -0.629 -0.077 c -1.319 0 -2.423 0.874 -2.796 2.071 c -0.524 -0.25 -1.108 -0.394 -1.727 -0.394 c -2.22 0 -4.02 1.8 -4.02 4.02 c 0 0.481 0.089 0.94 0.243 1.367 c -0.222 0.384 -0.351 0.829 -0.351 1.305 c 0 1.448 1.174 2.622 2.622 2.622 h 16.693 c 0.837 0 1.575 -0.4 2.055 -1.011 H 71.185 z" style="stroke: none; stroke-width: 1; stroke-dasharray: none; stroke-linecap: butt; stroke-linejoin: miter; stroke-miterlimit: 10; fill: rgb(46,124,33); fill-rule: nonzero; opacity: 1;" transform=" matrix(1 0 0 1 0 0) " stroke-linecap="round" />
	<path d="M 26.575 47.475 H 21.81 H 10.78 c -1.599 0 -2.896 -1.066 -2.896 -2.38 c 0 -1.19 1.067 -2.168 2.455 -2.344 c 0.364 -1.096 1.572 -1.906 3.022 -1.906 c 0.791 0 1.506 0.248 2.058 0.645 c 0.628 -0.992 1.888 -1.67 3.343 -1.67 c 0.457 0 0.894 0.07 1.3 0.193 c 0.844 -0.798 2.085 -1.305 3.473 -1.305 c 0.709 0 1.378 0.135 1.978 0.371 c 0.271 -0.714 0.88 -1.305 1.674 -1.642 c -0.026 -0.213 -0.065 -0.423 -0.065 -0.643 c 0 -1.388 0.548 -2.641 1.427 -3.58 c -1.147 0.428 -2.116 1.222 -2.754 2.248 c -0.243 -0.054 -0.491 -0.091 -0.751 -0.091 c -1.574 0 -2.891 1.043 -3.336 2.471 c -0.625 -0.298 -1.322 -0.47 -2.06 -0.47 c -1.446 0 -2.739 0.642 -3.618 1.654 c -0.423 -0.156 -0.877 -0.245 -1.354 -0.245 c -1.515 0 -2.828 0.86 -3.483 2.117 c -0.576 -0.503 -1.32 -0.817 -2.145 -0.817 c -1.51 0 -2.769 1.027 -3.148 2.417 C 4.451 42.72 3.34 43.96 3.34 45.469 c 0 1.666 1.351 3.017 3.017 3.017 H 17.85 h 4.964 h 14.955 c 0.908 0 1.719 -0.393 2.291 -1.011 H 26.575 z" style="stroke: none; stroke-width: 1; stroke-dasharray: none; stroke-linecap: butt; stroke-linejoin: miter; stroke-miterlimit: 10; fill: rgb(46,124,33); fill-rule: nonzero; opacity: 1;" transform=" matrix(1 0 0 1 0 0) " stroke-linecap="round" />
	<path d="M 50.451 42.653 c -1.054 0 -1.908 -0.763 -1.908 -1.705 c 0 -0.823 0.653 -1.51 1.521 -1.67 c -0.126 -0.227 -0.203 -0.48 -0.203 -0.75 c 0 -0.47 0.218 -0.89 0.563 -1.196 c -0.415 -0.544 -0.672 -1.215 -0.672 -1.952 c 0 -0.174 0.025 -0.341 0.051 -0.507 c -0.693 0.55 -1.172 1.358 -1.262 2.289 c -0.961 0.098 -1.714 0.901 -1.714 1.888 c 0 0.303 0.077 0.585 0.203 0.84 c -0.868 0.179 -1.521 0.947 -1.521 1.868 c 0 1.054 0.854 1.908 1.908 1.908 H 59.56 c 0.728 0 1.352 -0.412 1.674 -1.011 H 50.451 z" style="stroke: none; stroke-width: 1; stroke-dasharray: none; stroke-linecap: butt; stroke-linejoin: miter; stroke-miterlimit: 10; fill: rgb(46,124,33); fill-rule: nonzero; opacity: 1;" transform=" matrix(1 0 0 1 0 0) " stroke-linecap="round" />
	<path d="M 59.769 24.513 h -8.43 H 25.94 c -2.935 0 -5.314 -2.198 -5.314 -4.909 c 0 -2.37 1.819 -4.348 4.238 -4.808 c -0.35 -0.655 -0.564 -1.381 -0.564 -2.161 c 0 -2.372 1.835 -4.309 4.256 -4.765 c -0.147 -0.66 -0.231 -1.343 -0.231 -2.048 c 0 -1.914 0.576 -3.692 1.559 -5.176 c -3.191 1.257 -5.522 4.223 -5.866 7.771 c -2.678 0.274 -4.775 2.51 -4.775 5.26 c 0 0.844 0.215 1.63 0.564 2.339 c -2.419 0.498 -4.238 2.639 -4.238 5.205 c 0 2.935 2.379 5.314 5.314 5.314 h 25.399 h 8.43 h 19.519 c 1.658 0 3.117 -0.801 4.054 -2.022 H 59.769 z" style="stroke: none; stroke-width: 1; stroke-dasharray: none; stroke-linecap: butt; stroke-linejoin: miter; stroke-miterlimit: 10; fill: rgb(46,124,33); fill-rule: nonzero; opacity: 1;" transform=" matrix(1 0 0 1 0 0) " stroke-linecap="round" />
</g>
</svg>