<svg width="40" height="40" viewBox="0 0 50 52" fill="none" xmlns="http://www.w3.org/2000/svg">
<path d="M25.25 27.69C25.084 27.6683 24.9161 27.6683 24.75 27.69C22.9833 27.6282 21.3088 26.8545 20.0803 25.5324C18.8519 24.2104 18.1657 22.4435 18.1667 20.605C18.1667 16.6833 21.2084 13.4983 25 13.4983C26.7905 13.4951 28.5106 14.2238 29.7893 15.5272C31.068 16.8307 31.8029 18.6045 31.8357 20.4663C31.8685 22.3281 31.1965 24.1288 29.9646 25.48C28.7326 26.8313 27.0395 27.625 25.25 27.69V27.69ZM39.0417 41.99C35.2131 45.6497 30.2001 47.6763 25 47.6667C19.5834 47.6667 14.6667 45.5217 10.9584 41.99C11.1667 39.9533 12.4167 37.96 14.6459 36.4C20.3542 32.4567 29.6875 32.4567 35.3542 36.4C37.5834 37.96 38.8334 39.9533 39.0417 41.99V41.99Z" stroke="black" stroke-width="1.5" stroke-linecap="round" stroke-linejoin="round"/>
<path d="M25 47.6667C36.5062 47.6667 45.8333 37.9665 45.8333 26C45.8333 14.0335 36.5062 4.33334 25 4.33334C13.4937 4.33334 4.16663 14.0335 4.16663 26C4.16663 37.9665 13.4937 47.6667 25 47.6667Z" stroke="black" stroke-width="1.5" stroke-linecap="round" stroke-linejoin="round"/>
</svg>
